<svg width="303" height="303" viewBox="0 0 303 303" fill="none" xmlns="http://www.w3.org/2000/svg">
<g clip-path="url(#clip0_2_11)">
<path fill-rule="evenodd" clip-rule="evenodd" d="M151.501 0C67.8301 0 0 67.8276 0 151.5C0 235.171 67.8301 303 151.501 303C235.172 303 303 235.171 303 151.5C303 67.8276 235.172 0 151.501 0Z" fill="#052962"/>
<path fill-rule="evenodd" clip-rule="evenodd" d="M243.104 159.802L227.553 166.754V238.461C218.806 246.793 196.451 259.78 175.069 264.244V259.034V249.258V165.191L158.546 159.354V155.023H243.104V159.802ZM165.593 40.3655C165.593 40.3655 165.274 40.3625 165.116 40.3625C130.06 40.3625 110.005 87.6295 111.016 151.387C110.005 215.376 130.06 262.642 165.116 262.642C165.274 262.642 165.593 262.64 165.593 262.64V267.553C113.037 271.067 41.2789 231.913 42.2896 151.618C41.2789 71.0915 113.037 31.938 165.593 35.4521V40.3655ZM176.161 35.2313C196.713 38.3702 220.202 51.8682 229.01 61.4509V105.696H223.949L176.161 40.1141V35.2313Z" fill="white"/>
</g>
<defs>
<clipPath id="clip0_2_11">
<rect width="303" height="303" fill="white"/>
</clipPath>
</defs>
</svg>
